<svg id="Layer_1" data-name="Layer 1" xmlns="http://www.w3.org/2000/svg" viewBox="0 0 154.128 50">
  <defs>
    <style>
      .cls-1, .cls-2 {
        fill: #fff;
      }

      .cls-1 {
        opacity: 0;
      }
    </style>
  </defs>
  <rect class="cls-1" width="154.128" height="50"/>
  <g>
    <g id="Group_1160" data-name="Group 1160">
      <g id="Group_1155" data-name="Group 1155">
        <g id="Group_1154" data-name="Group 1154">
          <path id="Path_340" data-name="Path 340" d="M9.9,50c-.4,0-.787-.005-1.182-.014a16.4,16.4,0,0,1-2.444-.213,7.668,7.668,0,0,1-2.165-.717A7.3,7.3,0,0,1,.947,45.9a7.525,7.525,0,0,1-.71-2.166A16.209,16.209,0,0,1,.02,41.285C.011,41.009,0,40.092,0,40.092V9.892s.012-.9.02-1.168A16.182,16.182,0,0,1,.236,6.277,7.464,7.464,0,0,1,.947,4.105,6.965,6.965,0,0,1,2.274,2.278,7.265,7.265,0,0,1,4.107.941,7.6,7.6,0,0,1,6.268.23,16.508,16.508,0,0,1,8.72.016L9.9,0H144.228l1.193.017a16.07,16.07,0,0,1,2.429.212,7.755,7.755,0,0,1,2.184.716,7.307,7.307,0,0,1,3.157,3.163,7.507,7.507,0,0,1,.7,2.155,16.861,16.861,0,0,1,.227,2.467V9.893c.01.49.01.957.01,1.427V38.677c0,.474,0,.938-.01,1.405V41.3a16.524,16.524,0,0,1-.224,2.422,7.492,7.492,0,0,1-.706,2.183,7.145,7.145,0,0,1-1.327,1.812,7.059,7.059,0,0,1-1.83,1.336,7.621,7.621,0,0,1-2.18.719,16.387,16.387,0,0,1-2.443.213c-.383.009-.783.014-1.173.014h-1.417Z"/>
        </g>
      </g>
      <g id="Group_1159" data-name="Group 1159">
        <g id="Group_1157" data-name="Group 1157">
          <g id="Group_1156" data-name="Group 1156">
            <path id="Path_341" data-name="Path 341" class="cls-2" d="M31.236,25.4a6.467,6.467,0,0,1,3.08-5.427A6.621,6.621,0,0,0,29.1,17.147c-2.2-.23-4.323,1.314-5.442,1.314-1.14,0-2.861-1.291-4.716-1.252A6.946,6.946,0,0,0,13.1,20.774c-2.528,4.377-.642,10.81,1.779,14.348,1.212,1.732,2.627,3.667,4.481,3.6,1.813-.076,2.49-1.157,4.678-1.157,2.169,0,2.8,1.157,4.694,1.114,1.946-.033,3.171-1.741,4.341-3.49a14.318,14.318,0,0,0,1.984-4.042A6.249,6.249,0,0,1,31.236,25.4Z"/>
            <path id="Path_342" data-name="Path 342" class="cls-2" d="M27.665,14.82a6.371,6.371,0,0,0,1.458-4.563,6.486,6.486,0,0,0-4.193,2.17,6.061,6.061,0,0,0-1.5,4.393A5.358,5.358,0,0,0,27.665,14.82Z"/>
          </g>
        </g>
        <g id="Group_1158" data-name="Group 1158">
          <path id="Path_343" data-name="Path 343" class="cls-2" d="M54.154,34.334H47.967l-1.486,4.387H43.86l5.861-16.232h2.723L58.3,38.721H55.639Zm-5.546-2.025h4.9l-2.418-7.12h-.067Z"/>
          <path id="Path_344" data-name="Path 344" class="cls-2" d="M70.96,32.8c0,3.677-1.968,6.04-4.94,6.04A4.008,4.008,0,0,1,62.3,36.77h-.056v5.861h-2.43V26.886h2.352v1.968h.044a4.2,4.2,0,0,1,3.768-2.091C68.981,26.763,70.96,29.136,70.96,32.8Zm-2.5,0c0-2.4-1.239-3.971-3.128-3.971-1.856,0-3.1,1.608-3.1,3.971,0,2.384,1.248,3.982,3.1,3.982,1.893,0,3.132-1.565,3.132-3.982Z"/>
          <path id="Path_345" data-name="Path 345" class="cls-2" d="M83.986,32.8c0,3.677-1.968,6.04-4.94,6.04a4.008,4.008,0,0,1-3.723-2.07h-.056v5.861H72.842V26.886h2.352v1.968h.044a4.2,4.2,0,0,1,3.768-2.091C82.006,26.763,83.986,29.136,83.986,32.8Zm-2.5,0c0-2.4-1.238-3.971-3.127-3.971-1.856,0-3.1,1.608-3.1,3.971,0,2.384,1.248,3.982,3.1,3.982,1.892,0,3.129-1.565,3.129-3.982Z"/>
          <path id="Path_346" data-name="Path 346" class="cls-2" d="M92.593,34.2c.18,1.61,1.744,2.667,3.881,2.667,2.048,0,3.521-1.056,3.521-2.508,0-1.26-.889-2.014-2.992-2.531l-2.1-.507c-2.98-.72-4.365-2.114-4.365-4.376,0-2.8,2.44-4.724,5.907-4.724,3.43,0,5.781,1.924,5.86,4.724H99.849c-.146-1.62-1.485-2.6-3.443-2.6s-3.3.99-3.3,2.428c0,1.148.855,1.823,2.948,2.34l1.788.439c3.331.788,4.714,2.125,4.714,4.5,0,3.036-2.418,4.938-6.265,4.938-3.6,0-6.031-1.857-6.188-4.793Z"/>
          <path id="Path_347" data-name="Path 347" class="cls-2" d="M107.8,24.086v2.8h2.251V28.81H107.8v6.524c0,1.015.451,1.486,1.44,1.486a7.38,7.38,0,0,0,.8-.056v1.912a6.567,6.567,0,0,1-1.349.112c-2.4,0-3.33-.9-3.33-3.195V28.809h-1.72V26.886h1.72v-2.8Z"/>
          <path id="Path_348" data-name="Path 348" class="cls-2" d="M111.357,32.805c0-3.724,2.193-6.064,5.613-6.064s5.614,2.34,5.614,6.064-2.171,6.063-5.614,6.063S111.357,36.538,111.357,32.805Zm8.751,0c0-2.554-1.17-4.062-3.138-4.062s-3.137,1.519-3.137,4.063c0,2.565,1.169,4.06,3.137,4.06S120.108,35.369,120.108,32.805Z"/>
          <path id="Path_349" data-name="Path 349" class="cls-2" d="M124.587,26.886H126.9V28.9h.055a2.825,2.825,0,0,1,2.847-2.137,3.829,3.829,0,0,1,.833.09v2.272a3.442,3.442,0,0,0-1.091-.146A2.448,2.448,0,0,0,127,31.323a2.524,2.524,0,0,0,.014.379v7.019h-2.429Z"/>
          <path id="Path_350" data-name="Path 350" class="cls-2" d="M141.838,35.245c-.327,2.148-2.418,3.622-5.1,3.622-3.443,0-5.58-2.306-5.58-6.006s2.149-6.12,5.478-6.12c3.274,0,5.333,2.249,5.333,5.838v.831H133.61v.146a3.081,3.081,0,0,0,2.8,3.341h0a2.912,2.912,0,0,0,.385.01,2.677,2.677,0,0,0,2.733-1.664Zm-8.211-3.532h5.919a2.845,2.845,0,0,0-2.679-3h-.221a3,3,0,0,0-3.019,2.981h0v.019Z"/>
        </g>
      </g>
    </g>
    <g id="Group_1162" data-name="Group 1162">
      <g id="Group_1161" data-name="Group 1161">
        <path id="Path_351" data-name="Path 351" class="cls-2" d="M48.3,10.271c2.314,0,3.67,1.421,3.67,3.876,0,2.491-1.346,3.924-3.67,3.924H45.486v-7.8Zm-1.6,6.7h1.47c1.631,0,2.571-1.016,2.571-2.8,0-1.762-.956-2.79-2.571-2.79H46.7Z"/>
        <path id="Path_352" data-name="Path 352" class="cls-2" d="M53.342,15.124c0-1.9,1.059-3.053,2.778-3.053s2.774,1.157,2.774,3.053-1.055,3.06-2.774,3.06S53.342,17.033,53.342,15.124Zm4.357,0c0-1.276-.574-2.022-1.579-2.022s-1.578.746-1.578,2.022.567,2.027,1.578,2.027,1.58-.746,1.58-2.027Z"/>
        <path id="Path_353" data-name="Path 353" class="cls-2" d="M66.272,18.071h-1.21l-1.216-4.336h-.084l-1.211,4.336H61.358l-1.623-5.886h1.179l1.054,4.491h.088l1.21-4.491H64.38l1.21,4.491h.091l1.05-4.491h1.162Z"/>
        <path id="Path_354" data-name="Path 354" class="cls-2" d="M69.253,12.185h1.118v.935h.086a1.764,1.764,0,0,1,1.757-1.048,1.915,1.915,0,0,1,2.053,1.764,1.889,1.889,0,0,1-.015.425v3.81H73.089V14.552c0-.946-.411-1.417-1.27-1.417a1.35,1.35,0,0,0-1.411,1.286,1.414,1.414,0,0,0,.006.206v3.444H69.253Z"/>
        <path id="Path_355" data-name="Path 355" class="cls-2" d="M76.1,9.887h1.161v8.184H76.1Z"/>
        <path id="Path_356" data-name="Path 356" class="cls-2" d="M78.879,15.124c0-1.9,1.059-3.053,2.778-3.053s2.774,1.157,2.774,3.053-1.055,3.06-2.774,3.06S78.879,17.033,78.879,15.124Zm4.357,0c0-1.276-.574-2.022-1.579-2.022s-1.578.746-1.578,2.022.567,2.027,1.578,2.027S83.236,16.405,83.236,15.124Z"/>
        <path id="Path_357" data-name="Path 357" class="cls-2" d="M85.653,16.405c0-1.058.788-1.67,2.189-1.757l1.593-.091v-.508c0-.621-.41-.972-1.2-.972-.65,0-1.1.238-1.227.654H85.884c.119-1.01,1.069-1.659,2.405-1.659,1.474,0,2.307.734,2.307,1.978v4.022H89.478v-.828h-.093a1.973,1.973,0,0,1-1.767.924,1.777,1.777,0,0,1-1.955-1.579v0C85.657,16.527,85.653,16.466,85.653,16.405Zm3.783-.5v-.493L88,15.5c-.81.055-1.179.331-1.179.85s.46.838,1.091.838a1.387,1.387,0,0,0,1.521-1.238V15.9Z"/>
        <path id="Path_358" data-name="Path 358" class="cls-2" d="M92.12,15.124c0-1.86.957-3.038,2.443-3.038a1.942,1.942,0,0,1,1.8,1.033h.088V9.886h1.161V18.07H96.505v-.931h-.093a2.041,2.041,0,0,1-1.848,1.027C93.066,18.168,92.12,16.99,92.12,15.124Zm1.2,0c0,1.249.588,2,1.573,2s1.584-.762,1.584-1.995-.612-2-1.584-2-1.573.758-1.573,2Z"/>
        <path id="Path_359" data-name="Path 359" class="cls-2" d="M102.423,15.124c0-1.9,1.06-3.053,2.778-3.053s2.774,1.157,2.774,3.053-1.055,3.06-2.774,3.06S102.423,17.033,102.423,15.124Zm4.357,0c0-1.276-.572-2.022-1.579-2.022s-1.578.746-1.578,2.022.569,2.027,1.578,2.027S106.78,16.405,106.78,15.124Z"/>
        <path id="Path_360" data-name="Path 360" class="cls-2" d="M109.532,12.185h1.119v.935h.086a1.764,1.764,0,0,1,1.757-1.048,1.915,1.915,0,0,1,2.053,1.764,1.889,1.889,0,0,1-.015.425v3.81H113.37V14.552c0-.946-.411-1.417-1.271-1.417a1.35,1.35,0,0,0-1.411,1.286,1.414,1.414,0,0,0,.006.206v3.444h-1.162Z"/>
        <path id="Path_361" data-name="Path 361" class="cls-2" d="M121.1,10.72v1.491h1.276v.979H121.1v3.026c0,.617.254.887.833.887a3.646,3.646,0,0,0,.443-.027v.967a3.737,3.737,0,0,1-.633.06c-1.291,0-1.8-.455-1.8-1.589V13.19H119v-.979h.935V10.72Z"/>
        <path id="Path_362" data-name="Path 362" class="cls-2" d="M123.958,9.887h1.15V13.13h.093a1.812,1.812,0,0,1,1.8-1.053,1.939,1.939,0,0,1,2.041,1.831,1.915,1.915,0,0,1-.014.363v3.8H127.86V14.557c0-.94-.438-1.417-1.259-1.417a1.377,1.377,0,0,0-1.483,1.26,1.3,1.3,0,0,0,0,.233v3.438h-1.161Z"/>
        <path id="Path_363" data-name="Path 363" class="cls-2" d="M135.8,16.481a2.39,2.39,0,0,1-2.55,1.7c-1.686,0-2.719-1.157-2.719-3.039s1.055-3.074,2.714-3.074c1.638,0,2.626,1.119,2.626,2.967v.4H131.71V15.5a1.558,1.558,0,0,0,1.423,1.681q.072,0,.144,0a1.411,1.411,0,0,0,1.4-.714Zm-4.086-1.9h2.974a1.422,1.422,0,0,0-1.315-1.521q-.067,0-.135,0a1.506,1.506,0,0,0-1.525,1.487h0v.034Z"/>
      </g>
    </g>
  </g>
</svg>
