<svg id="Layer_1" data-name="Layer 1" xmlns="http://www.w3.org/2000/svg" viewBox="0 0 168.75 50">
  <defs>
    <style>
      .cls-1, .cls-3 {
        fill: #fff;
      }

      .cls-1 {
        opacity: 0;
      }

      .cls-2 {
        fill: #bad61a;
      }
    </style>
  </defs>
  <rect class="cls-1" width="168.75" height="50"/>
  <rect id="Rectangle_438" data-name="Rectangle 438" width="168.75" height="50" rx="8"/>
  <g>
    <path class="cls-2" d="M30.921,43.277a2.3,2.3,0,0,0,2.248-2.249V35.777h1.5a1.418,1.418,0,0,0,1.5-1.331,1.588,1.588,0,0,0,0-.169v-15h-18v15a1.419,1.419,0,0,0,1.333,1.5,1.551,1.551,0,0,0,.167,0h1.5v5.251a2.25,2.25,0,0,0,4.5,0h0V35.777h3v5.251A2.3,2.3,0,0,0,30.921,43.277Z" transform="translate(0)"/>
    <path class="cls-2" d="M39.923,34.275a2.3,2.3,0,0,0,2.252-2.248v-10.5a2.25,2.25,0,0,0-4.5,0v10.5A2.3,2.3,0,0,0,39.923,34.275Z" transform="translate(0)"/>
    <path class="cls-2" d="M14.419,34.275a2.3,2.3,0,0,0,2.249-2.248v-10.5a2.25,2.25,0,0,0-4.5,0v10.5A2.3,2.3,0,0,0,14.419,34.275Z" transform="translate(0)"/>
    <path class="cls-2" d="M34.375,7.579a.719.719,0,0,0-1.016-.032l-.032.032L31.309,9.586l-.092.093a8.9,8.9,0,0,0-4.024-.9h-.044a8.9,8.9,0,0,0-4.024.9l-.093-.093L21.018,7.579a.74.74,0,0,0-1.043,1.047l1.948,1.948a8.153,8.153,0,0,0-1.692,1.519A8.813,8.813,0,0,0,18.183,17.3v.061c-.007.135-.01.271-.01.407h18c0-.136,0-.272-.009-.407V17.3a8.815,8.815,0,0,0-2.045-5.213,8.1,8.1,0,0,0-1.692-1.519l1.948-1.946A.722.722,0,0,0,34.4,7.605ZM23.418,15.152a1.125,1.125,0,1,1,1.125-1.125A1.125,1.125,0,0,1,23.418,15.152Zm7.506,0a1.125,1.125,0,1,1,1.124-1.126h0a1.124,1.124,0,0,1-1.123,1.125Z" transform="translate(0)"/>
  </g>
  <g>
    <g>
      <path class="cls-3" d="M59.385,35.15H54.551l-1.169,3.366H51.36l4.579-12.682h2.119l4.579,12.682H60.545ZM55.052,33.5h3.832l-1.837-5.361H56.9Z" transform="translate(0)"/>
      <path class="cls-3" d="M64.623,28.945h1.819v1.521h.141a2.866,2.866,0,0,1,2.856-1.705c2.136,0,3.314,1.283,3.314,3.559v6.2h-1.89V32.8c0-1.538-.668-2.3-2.065-2.3a2.195,2.195,0,0,0-2.3,2.09,2.22,2.22,0,0,0,.01.336v5.6h-1.89Z" transform="translate(0)"/>
      <path class="cls-3" d="M74.933,33.726c0-3.023,1.555-4.939,3.972-4.939a3.157,3.157,0,0,1,2.936,1.679h.14V25.21h1.894V38.516h-1.81V37h-.15a3.322,3.322,0,0,1-3.006,1.67C76.475,38.675,74.933,36.759,74.933,33.726Zm1.951,0c0,2.031.958,3.252,2.557,3.252s2.576-1.239,2.576-3.243-.994-3.252-2.576-3.252S76.884,31.714,76.884,33.726Z" transform="translate(0)"/>
      <path class="cls-3" d="M86.7,28.945h1.82v1.468h.14a2.6,2.6,0,0,1,2.584-1.626,3.99,3.99,0,0,1,.844.079v1.863a5.2,5.2,0,0,0-1.055-.114A2.243,2.243,0,0,0,88.6,32.649a1.951,1.951,0,0,0-.009.216v5.651H86.7Z" transform="translate(0)"/>
      <path class="cls-3" d="M93.187,33.726c0-3.084,1.723-4.965,4.518-4.965s4.509,1.881,4.509,4.965c0,3.1-1.714,4.975-4.509,4.975S93.187,36.829,93.187,33.726Zm7.084,0c0-2.074-.931-3.287-2.566-3.287s-2.566,1.213-2.566,3.287c0,2.092.923,3.3,2.566,3.3s2.57-1.222,2.57-3.3Z" transform="translate(0)"/>
      <path class="cls-3" d="M104.235,26.115a1.224,1.224,0,1,1,1.3,1.149l-.073,0a1.164,1.164,0,0,1-1.221-1.1Zm.282,2.83h1.88v9.571h-1.88Z" transform="translate(0)"/>
      <path class="cls-3" d="M108.7,33.726c0-3.023,1.556-4.939,3.973-4.939a3.155,3.155,0,0,1,2.935,1.679h.141V25.21h1.89V38.516h-1.811V37h-.153a3.325,3.325,0,0,1-3.006,1.67C110.238,38.675,108.7,36.759,108.7,33.726Zm1.951,0c0,2.031.958,3.252,2.558,3.252s2.575-1.239,2.575-3.243-.993-3.252-2.575-3.252S110.651,31.714,110.651,33.726Z" transform="translate(0)"/>
      <path class="cls-3" d="M132.659,35.15h-4.834l-1.169,3.366h-2.021l4.579-12.682h2.118l4.579,12.682h-2.092ZM128.326,33.5h3.832l-1.837-5.361h-.146Z" transform="translate(0)"/>
      <path class="cls-3" d="M146.836,33.726c0,3.041-1.538,4.949-3.955,4.949a3.12,3.12,0,0,1-2.944-1.609h-.15V41.7H137.9V28.945h1.82v1.582h.14a3.326,3.326,0,0,1,3.006-1.74C145.3,28.787,146.836,30.685,146.836,33.726Zm-1.942,0c0-2.021-.958-3.243-2.558-3.243s-2.584,1.248-2.584,3.252.993,3.243,2.575,3.243C143.936,36.978,144.894,35.757,144.894,33.726Z" transform="translate(0)"/>
      <path class="cls-3" d="M158.042,33.726c0,3.041-1.538,4.949-3.955,4.949a3.12,3.12,0,0,1-2.944-1.609h-.15V41.7H149.1V28.945h1.819v1.582h.14a3.33,3.33,0,0,1,3.006-1.74C156.5,28.787,158.042,30.685,158.042,33.726Zm-1.942,0c0-2.021-.958-3.243-2.558-3.243s-2.584,1.248-2.584,3.252.993,3.243,2.575,3.243C155.142,36.978,156.1,35.757,156.1,33.726Z" transform="translate(0)"/>
    </g>
    <g>
      <path class="cls-3" d="M54.386,10.267c2.3,0,3.647,1.413,3.647,3.852,0,2.476-1.338,3.9-3.647,3.9h-2.8V10.267Zm-1.6,6.655h1.461c1.621,0,2.557-1.01,2.557-2.787,0-1.751-.952-2.772-2.557-2.772H52.791Z" transform="translate(0)"/>
      <path class="cls-3" d="M66.567,14.14c0,2.492-1.364,4.066-3.609,4.066s-3.62-1.568-3.62-4.066,1.4-4.061,3.62-4.061S66.567,11.642,66.567,14.14Zm-6,0c0,1.789.9,2.943,2.39,2.943s2.38-1.154,2.38-2.943S64.43,11.2,62.958,11.2s-2.39,1.137-2.39,2.936Z" transform="translate(0)"/>
      <path class="cls-3" d="M70.628,18.018H69.489L67.4,10.267h1.251L70.075,16.2h.076l1.617-5.936h1.117L74.512,16.2h.074L76,10.268h1.252l-2.095,7.751H74.027l-1.664-5.688h-.076Z" transform="translate(0)"/>
      <path class="cls-3" d="M78.707,18.018V10.267h1.084l3.98,5.506h.086V10.267h1.171v7.751H83.943l-3.98-5.505h-.088v5.505Z" transform="translate(0)"/>
      <path class="cls-3" d="M91.807,18.018H86.975V10.267h1.2v6.645h3.631Z" transform="translate(0)"/>
      <path class="cls-3" d="M99.954,14.14c0,2.492-1.364,4.066-3.609,4.066s-3.62-1.568-3.62-4.066,1.4-4.061,3.62-4.061S99.954,11.642,99.954,14.14Zm-6,0c0,1.789.9,2.943,2.39,2.943,1.471,0,2.38-1.154,2.38-2.943S97.816,11.2,96.345,11.2s-2.39,1.137-2.39,2.936Z" transform="translate(0)"/>
      <path class="cls-3" d="M105.523,15.961h-2.948l-.715,2.057h-1.235l2.8-7.751h1.3l2.8,7.751h-1.28Zm-2.647-1.01h2.342L104.1,11.675H104Z" transform="translate(0)"/>
      <path class="cls-3" d="M111.657,10.267c2.3,0,3.648,1.413,3.648,3.852,0,2.476-1.338,3.9-3.648,3.9h-2.8V10.267Zm-1.594,6.655h1.46c1.622,0,2.557-1.01,2.557-2.787,0-1.751-.951-2.772-2.557-2.772h-1.46Z" transform="translate(0)"/>
      <path class="cls-3" d="M126.848,14.14c0,2.492-1.365,4.066-3.61,4.066s-3.62-1.568-3.62-4.066,1.4-4.061,3.62-4.061S126.848,11.642,126.848,14.14Zm-6,0c0,1.789.9,2.943,2.39,2.943,1.472,0,2.379-1.154,2.379-2.943s-.907-2.936-2.379-2.936S120.848,12.341,120.848,14.14Z" transform="translate(0)"/>
      <path class="cls-3" d="M129.7,15.241a1.939,1.939,0,0,0,3.872,0V10.267h1.2v5.082a3.153,3.153,0,0,1-6.278,0V10.267h1.2Z" transform="translate(0)"/>
      <path class="cls-3" d="M137.939,18.018h-1.2V10.267h3.067a2.32,2.32,0,0,1,2.557,2.056,2.257,2.257,0,0,1,.012.329,2.232,2.232,0,0,1-1.5,2.213l1.74,3.153h-1.4l-1.578-2.954h-1.7Zm0-3.98h1.729a1.289,1.289,0,0,0,1.467-1.359,1.322,1.322,0,0,0-1.276-1.365,1.4,1.4,0,0,0-.224.012h-1.7Z" transform="translate(0)"/>
    </g>
  </g>
</svg>
